<?xml version="1.0" encoding="utf-8"?>
<!-- Generator: Adobe Illustrator 25.2.1, SVG Export Plug-In . SVG Version: 6.00 Build 0)  -->
<svg version="1.1" id="Layer_1" xmlns="http://www.w3.org/2000/svg" xmlns:xlink="http://www.w3.org/1999/xlink" x="0px" y="0px"
	 viewBox="0 0 612 792" style="enable-background:new 0 0 612 792;" xml:space="preserve">
<g>
	<path d="M342.3,400.32c4.52-2.32,8.98-4.77,13.57-6.95c16.97-8.06,33.99-16.04,50.99-24.05c12.29-5.79,25.03-2.88,36.62,3.2
		c-2.78,3.22-4.85,7.05-8.06,9.07c-7.42,4.67-15.17,8.96-23.18,12.5c-12.01,5.31-24.36,9.82-36.56,14.71
		c-1.67,0.67-3.27,1.51-5.49,2.53c22.54,16.07,27.21,38.29,23.98,64.75c-12.31,0-24.43-0.11-36.54,0.02
		c-37.97,0.39-75.94,0.85-113.91,1.33c-4.78-1.09-6.48-5.7-10.49-8.84c-3-2.35-6.95-6.08-11.83-11.32
		c-1.84-2.34-11.05,0.31-16.21-1.94c-10.97-4.78-25.22-3.39-29.55-14.55c-0.59-1.51-1.27-3.14-2.37-4.27
		c-5.86-6.07-6.09-12.77-0.17-18.52c6.41-6.22,12.85-12.44,19.65-18.23c2.55-2.18,6.04-3.42,9.28-4.59
		c4.32-1.56,8.21-2.7,11.23-7.19c2.46-3.65,7.6-5.79,11.92-7.83c8.54-4.04,17.66-5.55,27.16-5.5c3.38,0.02,6.86-1.51,10.14-2.74
		c2.62-0.99,4.96-2.7,7.52-3.91c6.63-3.13,8.15-5.62,7.54-12.76c-1.98-23.05,14.18-41.08,37.46-41.34
		c6.66-0.08,13.34,0.95,22.03,1.62c-8.19,9.54-5.13,15.92,1.78,21.92c1.85,1.61,2.47,4.64,4.07,7.85c8.48,0,17.45,0,26.42,0
		c0.07,0.54,0.14,1.09,0.2,1.63c-8.04,3.89-16.13,7.67-24.06,11.76c-1.43,0.74-2.87,2.62-3.16,4.19c-0.6,3.23,0.75,4.78,4.3,3.18
		c3.58-1.61,7.28-2.96,11.07-4.47C356.9,372.28,349.35,390.21,342.3,400.32z M274.7,451.1c2.96-4.99,2.92-12.35,0.8-14.32
		c-7.6-7.09-17.79-9.08-26.95-9.54c-8.96-0.45-16.05-2.62-22.91-7.66c-5.64-4.15-11.86-5.74-18.86-3.76
		c-2.75,0.78-5.69,0.92-8.54,1.36c2.03-1.82,4.39-2.59,6.46-3.84c7.96-4.84,15.29-3.02,22.34,1.92c2.45,1.72,4.63,3.86,7.17,5.42
		c7.23,4.43,15.14,0.48,15.46-7.93c0.31-8.15-2.61-15.04-9.83-19.53c-7.08-4.41-14.11-3.72-21.17,0.27
		c0.29,0.65,0.55,1.09,0.67,1.56c0.13,0.53,0.12,1.09,0.17,1.68c-11.57,0.3-20.95,4.48-28.7,12.69c-3.38,3.58-7.29,6.73-11.29,9.61
		c-4.75,3.43-5.41,10.42-1.03,14.31c1.61,1.43,3.15,2.98,4.49,4.67c6.15,7.73,14.04,10.74,23.48,7.79
		c8.69-2.71,17.35-2.37,26.18-1.62c2.79,0.24,4.55,0.69,6.13,3.46c1.07,1.88,4.31,3.79,6.36,3.59c4.21-0.42,5.29,1.75,6.01,4.84
		c0.51,2.17,0.76,4.4,1.11,6.49c7.91-0.42,1.32-9.72,7.39-11.77c-0.12,0.94-0.25,1.56-0.26,2.19c-0.04,2.65-1.45,5.96,2.68,6.66
		c0.26,0.04,1.28-4,1.83-6.18c0.42-1.69,0.66-3.43,0.98-5.14c0.23,0.11,0.45,0.23,0.68,0.34c0.73,2.87,1.46,5.74,2.2,8.61
		c0.62-0.08,1.24-0.17,1.86-0.25c0.95-4.1,1.9-8.21,2.85-12.31c0.33,0.09,0.67,0.18,1,0.26C273.8,446.62,274.14,448.31,274.7,451.1z
		 M291.43,427.33c2.87,1.24,4.57,2.63,6.16,2.51c2.92-0.22,5.93-0.98,8.64-2.13c41.68-17.55,83.31-35.2,124.94-52.86
		c0.61-0.26,1.06-0.92,1.75-1.55c-9.47-3.36-18.15-1.58-26.56,2.17c-18.22,8.13-36.37,16.41-54.56,24.62
		C332.26,408.93,312.71,417.73,291.43,427.33z M312.62,412.94c-0.08-0.25-0.15-0.5-0.23-0.75c-0.74,0-1.48-0.08-2.21,0.01
		c-14.23,1.87-24.9-3.77-32.77-15.42c-1.39-2.07-2.79-4.16-4.41-6.04c-10.16-11.85-29.33-14.07-44.79-4.97
		c25.4,3.13,32.59,21.78,22.74,37.24c4.9,1.27,9.61,2.49,14.32,3.71c0.14-0.46,0.29-0.91,0.43-1.37c-4.03-3.44-5.22-7.8-3.58-12.64
		c1.44-4.28,5.32-6.77,9.29-6.22c3.93,0.55,8.13,2.68,11.16,5.32c3.28,2.86,5.34,7.11,8.22,11.15
		C298.01,419.64,305.32,416.29,312.62,412.94z M289.25,360.4c12.2-4.06,24.11-8.03,36.28-12.08c-2.56-11.33-11.31-11.76-21.29-11.46
		c12.5-6.47,22.17-3.95,29.11,6.59c0.73,1.1,1.98,1.86,2.99,2.78c-2.17-12.24-13.44-18.13-26.47-15.24
		C294.44,334.41,286.49,345.47,289.25,360.4z M304.31,378.92c3.31,14.4,21.96,23.05,34.59,16c1.44-0.8,2.29-2.68,3.41-4.06
		c-0.32-0.46-0.63-0.91-0.95-1.37c-4.41,1.79-7.87,7.57-13.14,4.14c1.07-0.36,2.45-0.83,5.16-1.74c-2.51-0.74-3.56-1.05-5.35-1.59
		c3.56-0.71,7.31-0.06,6.65-5.01c-2.67-0.2-5.25-0.39-7.88-0.58c3.18-2.11,8.81,2.37,10.14-4.39c-3.94-0.48-7.61-0.92-11.28-1.37
		c5.24-0.56,10.66,0.91,14.89-3.79c0.54-0.6,2.25-0.72,3.12-0.35c4.57,1.96,5.39,1.37,5.07-4.32c-10.09,3.75-20.3,5.15-30.8,2.16
		c-0.83-0.24-1.98,0.01-2.78,0.42C311.5,374.95,307.9,376.96,304.31,378.92z M356.05,347.84c-18.11-0.24-34.66,4.94-51.22,10.94
		c1.19,9.21-4.98,14.2-10.89,19.33c0.35,0.41,0.69,0.82,1.04,1.23C315.13,368.94,335.28,358.55,356.05,347.84z M309.47,398.18
		c-3.05-4.55-5.86-9.04-9.03-13.26c-0.85-1.13-2.79-1.95-4.27-2.01c-3.3-0.12-6.67,0.06-9.92,0.65c-3.23,0.58-6.34,1.81-10.34,3
		c2.85,4.21,4.92,7.26,7.06,10.41c2.62-1.93,4.6-3.38,6.57-4.84c0.16,0.18,0.31,0.36,0.47,0.54c-1.19,2.09-2.39,4.19-3.6,6.3
		c1.9,1.93,3.54,3.81,5.4,5.43c3.26,2.83,6.28,3.83,9.71-0.31C303.56,401.64,306.75,400.14,309.47,398.18z M306.79,444.35
		c7.86,1.23,15.59,1.22,22.02-4.52c5.92-5.29,9.83-11.79,12.51-19.51c-5.05,0.04-6.48,3.32-8.12,6.63
		c-5.49,11.13-13.35,15.26-23.43,12.22c6.34-3.14,12.68-5.97,16.49-13.49c-10.17,4.18-19.41,7.97-28.98,11.9
		c5.48,10.98,8.92,21.29-4.42,29.01C300.98,467.88,305.64,460.24,306.79,444.35z M295.82,363.33c-8.16,0.88-25.42,9.6-28.57,14.29
		c6.46,2.9,12.97,4.91,19.31,0.16C291.3,374.23,295.55,370.12,295.82,363.33z M282.11,443.88c1,8.44-6.42,10.95-10.48,15.02
		c-3.63,3.64-9.81,4.72-14.87,6.93c0.12,0.32,0.23,0.64,0.35,0.96c9.29,0,18.57,0,28.53,0c-4.66-5.23-5.4-9.68-0.58-14.87
		C287.56,449.22,285.45,446.06,282.11,443.88z M285.41,362.39c0.57-5.32,0.29-10.92,1.96-15.87c1.77-5.25,5.39-9.87,8.87-15.93
		c-0.9-0.91-2.57-2.6-4.21-4.26C281.82,335.49,278.83,350.06,285.41,362.39z M342.98,436.83c-0.28-0.09-0.55-0.18-0.83-0.27
		c-4.45,9.29-8.9,18.57-13.48,28.13c4.93,0.2,4.98,0.22,6.16-3.1c1.85-5.25,3.62-10.53,5.49-16c3.37,4.27,14.63,3.02,17.22-1.73
		c-5.03-1.14-10.01-2.28-15.15-3.44C342.57,439.33,342.78,438.08,342.98,436.83z M274.88,420.75c-0.18-0.46-0.36-0.92-0.54-1.39
		c-1.05,0.26-2.18,0.88-3.14,0.68c-1.59-0.32-3.99-0.84-4.37-1.89c-0.55-1.54-0.21-4.15,0.84-5.29c1.01-1.09,4.3-1.82,5.06-1.09
		c3.8,3.59,7.81,7.29,10.4,11.74c4.38,7.5,7.76,15.59,11.61,23.54c-0.04-9.72-10.5-31.19-17.71-36.45c-3.3-2.4-7.21-2.89-10.14-0.36
		c-1.89,1.62-3.17,5.14-2.94,7.65c0.18,1.93,2.87,4.41,4.96,5.11C270.48,423.52,272.86,421.59,274.88,420.75z M356.73,414.87
		c-0.21,0.42-0.43,0.85-0.64,1.27c16.99,7.99,25.79,21.76,29.1,40.1c1.29-1.15,2.2-2.43,2.04-3.57
		c-2.24-16.23-10.45-28.4-25.07-36.03C360.49,415.77,358.54,415.45,356.73,414.87z M330.6,317.35c-6.93,0-12.79,0-18.9,0
		c0.28,3.27,0.49,5.68,0.71,8.22c5.01,0.35,9.56,0.66,14.52,1.01C328.02,323.82,329.15,321,330.6,317.35z M307.25,465.85
		c9.06,1.3,20.73-11.08,21.08-18.96C322.14,452.45,315.13,458.76,307.25,465.85z M338.51,361.55c-2.52-2.5-12.2,1.8-18.9,9.01
		c5.89,0,10.92,0,15.95,0c0.1-0.45,0.21-0.89,0.31-1.34c-2.01-0.98-4.01-1.95-6.09-2.96C332.79,364.63,335.66,363.09,338.51,361.55z
		 M351.83,457.1c-0.23-0.8-0.46-1.6-0.7-2.41c-3.52-0.21-7.05-0.62-10.56-0.46c-0.76,0.03-1.43,2.11-2.14,3.25
		c2.99,0.76,5.95,1.9,8.98,2.11C348.82,459.69,350.35,457.99,351.83,457.1z M349.18,462.03c-7.23-2.64-10.84-2.4-12.91,0.67
		C341.2,466.29,346.24,466.14,349.18,462.03z M229.01,460.59c0.71,0.65,1.41,1.3,2.12,1.96c1.28-1.49,2.31-3.41,3.91-4.37
		c1.69-1.01,3.92-1.11,5.91-1.61c-2-1.55-4.84-3.03-6.51-2.19C232.16,455.52,230.77,458.43,229.01,460.59z M288.23,465.61
		c-0.5-3.08-1.63-5.72-1.11-7.97c0.52-2.23,2.72-4.07,3.85-5.62c-2.79-0.39-5.83,0.87-6.75,4.94
		C283.39,460.67,284.07,464.08,288.23,465.61z M353.95,452.89c-2.64-3.97-7.91-5.44-10.6-3.59c-0.59,0.4-1.22,1.28-1.18,1.91
		c0.03,0.59,0.9,1.59,1.43,1.61C346.86,452.96,350.12,452.89,353.95,452.89z M275.39,424.01c-2.53,0.89-4.74,1.66-7.08,2.48
		c2.52,3.6,5.08,5.7,9.17,1.8C276.81,426.92,276.12,425.51,275.39,424.01z M300.81,330.05c5.22-3.58,0.46-6.35-0.22-9.41
		C296.85,322.59,296.85,322.59,300.81,330.05z"/>
	<path d="M225.49,439.14c-7.49,1.33-14.95,3.34-22.49,3.8c-8.4,0.52-15.51-2.87-20.73-12.03c7.63,3.28,12.42,11,21.04,7.45
		c-0.76-1.15-1.66-2.52-2.8-4.25c8.59,1.42,16.77,2.77,24.95,4.12C225.46,438.54,225.48,438.84,225.49,439.14z"/>
	<path d="M202.15,424.83c7.52-1.89,14.84-1.58,21.17,4.01C216.26,427.5,209.21,426.17,202.15,424.83z"/>
	<path d="M215.97,406.07c4.66-4.42,9.35-5.27,14.19-3.02C225.88,403.96,221,405,215.97,406.07z"/>
	<path d="M259.59,442.09c-3.82-1.81-7.64-3.62-11.46-5.43c0.11-0.32,0.22-0.63,0.34-0.95c3.97,1.42,7.95,2.83,11.92,4.25
		C260.13,440.67,259.86,441.38,259.59,442.09z"/>
</g>
</svg>
