<?xml version="1.0" encoding="UTF-8"?>
<svg id="Layer_1" xmlns="http://www.w3.org/2000/svg" version="1.1" viewBox="0 0 5000 2300.9">
  <!-- Generator: Adobe Illustrator 30.4.0, SVG Export Plug-In . SVG Version: 2.1.4 Build 226)  -->
  <defs>
    <style>
      .st0 {
        fill: none;
        stroke: #231f20;
        stroke-linejoin: round;
        stroke-width: 146.7px;
      }

      .st1 {
        fill: #231f20;
      }
    </style>
  </defs>
  <polyline class="st0" points="2602.9 712.8 1998.6 89.9 212.7 1931 1139.2 1619.5 1384.3 1872.1 2126.2 1107.3 2424.9 1415.3 3421.9 387.5 4919.1 1931 3912.1 1515.7 3643.5 1792.5 3089.6 1221.5"/>
  <ellipse class="st0" cx="312.5" cy="1348.3" rx="242.3" ry="249.8"/>
  <g>
    <path class="st1" d="M354.8,2252.4c-59.6,0-103.7-48.4-103.7-112.3s44.1-107.8,103.7-107.8h115.7v38.5h-115.7c-38.2,0-66.4,29.4-66.4,71.2s27.9,72.1,66.4,72.1h115.7v38.5h-115.7Z"/>
    <path class="st1" d="M500.8,2252.4v-220.1h37.3v181.7h143.6v38.5h-180.9Z"/>
    <path class="st1" d="M931.1,2252.4l-32-55.4h-101l17.6-31.2h65.5l-47.6-82.4-96.9,169h-42.6l122.8-210.7c4.4-7.6,10-12.4,18.2-12.4s13.5,4.8,17.9,12.4l123.1,210.7h-44.9Z"/>
    <path class="st1" d="M998.9,2252.4v-38.5h160.1c20,0,31.1-11.5,31.1-28.8s-11.2-28.5-31.1-28.5h-98.1c-40.2,0-65.2-26.3-65.2-62.7s23.2-61.8,65.8-61.8h153.3v38.5h-153.3c-17,0-27,10.3-27,26.9s10.3,26.6,26.7,26.6h97.8c43.2,0,66.4,20.9,66.4,63.6s-21.7,64.5-66.4,64.5h-160.1Z"/>
    <path class="st1" d="M1257.4,2252.4v-38.5h160.1c20,0,31.1-11.5,31.1-28.8s-11.2-28.5-31.1-28.5h-98.1c-40.2,0-65.2-26.3-65.2-62.7s23.2-61.8,65.8-61.8h153.3v38.5h-153.3c-17,0-27,10.3-27,26.9s10.3,26.6,26.7,26.6h97.8c43.2,0,66.4,20.9,66.4,63.6s-21.7,64.5-66.4,64.5h-160.1Z"/>
    <path class="st1" d="M1517.9,2252.4v-220.1h37.3v220.1h-37.3Z"/>
    <path class="st1" d="M1691.7,2252.4c-59.6,0-103.7-48.4-103.7-112.3s44.1-107.8,103.7-107.8h115.7v38.5h-115.7c-38.2,0-66.4,29.4-66.4,71.2s27.9,72.1,66.4,72.1h115.7v38.5h-115.7Z"/>
    <path class="st1" d="M2060.3,2252.4l-32-55.4h-101l17.6-31.2h65.5l-47.6-82.4-96.9,169h-42.6l122.8-210.7c4.4-7.6,10-12.4,18.2-12.4s13.5,4.8,17.9,12.4l123.1,210.7h-44.9Z"/>
    <path class="st1" d="M2128.2,2252.4v-220.1h37.3v181.7h143.6v38.5h-180.9Z"/>
    <path class="st1" d="M2490.6,2252.4v-181.7h-81.1v-38.5h199.4v38.5h-81.1v181.7h-37.3Z"/>
    <path class="st1" d="M2633.6,2252.4v-220.1h190.6v38.5h-153.6v143.2h153.9v38.5h-190.9ZM2698,2156.8v-32.4h118.4v32.4h-118.4Z"/>
    <path class="st1" d="M2954.1,2252.4c-59.6,0-103.7-48.4-103.7-112.3s44.1-107.8,103.7-107.8h115.7v38.5h-115.7c-38.2,0-66.4,29.4-66.4,71.2s27.9,72.1,66.4,72.1h115.7v38.5h-115.7Z"/>
    <path class="st1" d="M3100,2253.4v-221h37.3v221h-37.3ZM3271.8,2253.4v-95.7h-107.5v-34.2h107.5v-91.1h37.3v221h-37.3Z"/>
    <path class="st1" d="M3380.8,2091.4v161.1h-35.5v-199.8c0-14.2,7.3-23,19.1-23s10.3,2.1,15.9,7.9l150.7,154.1v-161.1h35.5v201.7c0,14.5-7.6,23-18.5,23s-11.7-2.7-17-8.2l-150.1-155.6Z"/>
    <path class="st1" d="M3700.1,2252.4c-59.6,0-103.7-48.4-103.7-112.3s44.1-107.8,103.7-107.8h52c61.7,0,104.6,43.9,104.6,107.8s-43.8,112.3-104.6,112.3h-52ZM3752,2214c39.4,0,67.3-30.6,67.3-72.1s-27.9-71.2-67.3-71.2h-52c-38.2,0-66.4,29.4-66.4,71.2s27.9,72.1,66.4,72.1h52Z"/>
    <path class="st1" d="M3886.9,2252.4v-220.1h37.3v181.7h143.6v38.5h-180.9Z"/>
    <path class="st1" d="M4192,2252.4c-59.6,0-103.7-48.4-103.7-112.3s44.1-107.8,103.7-107.8h52c61.7,0,104.6,43.9,104.6,107.8s-43.8,112.3-104.6,112.3h-52ZM4244,2214c39.4,0,67.3-30.6,67.3-72.1s-27.9-71.2-67.3-71.2h-52c-38.2,0-66.4,29.4-66.4,71.2s27.9,72.1,66.4,72.1h52Z"/>
    <path class="st1" d="M4476.3,2252.4c-59.6,0-103.7-48.4-103.7-112.3s44.1-107.8,103.7-107.8h115.7v38.5h-115.7c-38.2,0-66.4,29.4-66.4,71.2s27.9,72.1,66.4,72.1h91.3v-57.2h-96.3v-32.4h133.9v128.1h-128.9Z"/>
    <path class="st1" d="M4738.3,2252.4v-83.6l-113.4-136.6h50.2l83.1,101.4,83.4-101.4h47.6l-113.7,136.6v83.6h-37.3Z"/>
  </g>
</svg>